<svg viewBox="0 0 38 38" fill="none" xmlns="http://www.w3.org/2000/svg">
    <path d="M17.3022 2.72659C18.085 1.46946 19.915 1.46946 20.6978 2.72659L22.9696 6.37503C23.422 7.10161 24.2866 7.45976 25.1203 7.2659L29.3065 6.29245C30.749 5.95704 32.043 7.25103 31.7075 8.69346L30.7341 12.8797C30.5402 13.7134 30.8984 14.578 31.625 15.0304L35.2734 17.3022C36.5305 18.085 36.5305 19.915 35.2734 20.6978L31.625 22.9696C30.8984 23.422 30.5402 24.2866 30.7341 25.1203L31.7075 29.3065C32.043 30.749 30.749 32.043 29.3065 31.7075L25.1203 30.7341C24.2866 30.5402 23.422 30.8984 22.9696 31.625L20.6978 35.2734C19.915 36.5305 18.085 36.5305 17.3022 35.2734L15.0304 31.625C14.578 30.8984 13.7134 30.5402 12.8797 30.7341L8.69346 31.7075C7.25103 32.043 5.95704 30.749 6.29245 29.3065L7.2659 25.1203C7.45976 24.2866 7.10161 23.422 6.37502 22.9696L2.72659 20.6978C1.46946 19.915 1.46946 18.085 2.72659 17.3022L6.37503 15.0304C7.10161 14.578 7.45976 13.7134 7.2659 12.8797L6.29245 8.69346C5.95704 7.25103 7.25103 5.95704 8.69346 6.29245L12.8797 7.2659C13.7134 7.45976 14.578 7.10161 15.0304 6.37502L17.3022 2.72659Z" fill="#E74040"/>
    <path fill-rule="evenodd" clip-rule="evenodd" d="M26.7188 14.2843C27.0937 14.6633 27.0937 15.2779 26.7188 15.6569L17.7588 24.7157C17.3839 25.0948 16.7761 25.0948 16.4012 24.7157L11.2812 19.5392C10.9063 19.1602 10.9063 18.5457 11.2812 18.1667C11.6561 17.7876 12.2639 17.7876 12.6388 18.1667L17.08 22.6568L25.3612 14.2843C25.7362 13.9052 26.3439 13.9052 26.7188 14.2843Z" fill="white"/>
</svg>
